<svg width="1440" height="2200" viewBox="0 0 1440 2200" fill="none" xmlns="http://www.w3.org/2000/svg">
  <defs>
    <linearGradient id="bg" x1="0" y1="0" x2="1440" y2="2200" gradientUnits="userSpaceOnUse">
      <stop stop-color="#050706"/>
      <stop offset="0.45" stop-color="#10130D"/>
      <stop offset="1" stop-color="#050706"/>
    </linearGradient>
    <linearGradient id="gold" x1="0" y1="0" x2="1" y2="1">
      <stop stop-color="#FFD84D"/>
      <stop offset="1" stop-color="#E8A923"/>
    </linearGradient>
    <linearGradient id="greenGold" x1="0" y1="0" x2="1" y2="1">
      <stop stop-color="#50E47C"/>
      <stop offset="1" stop-color="#FFD84D"/>
    </linearGradient>
    <filter id="softGlow" x="-40%" y="-40%" width="180%" height="180%">
      <feGaussianBlur stdDeviation="28" result="blur"/>
      <feColorMatrix in="blur" type="matrix" values="1 0 0 0 0.98 0 1 0 0 0.74 0 0 1 0 0.16 0 0 0 0.55 0"/>
      <feBlend in="SourceGraphic"/>
    </filter>
    <filter id="shadow" x="-20%" y="-20%" width="140%" height="140%">
      <feDropShadow dx="0" dy="24" stdDeviation="28" flood-color="#000000" flood-opacity="0.45"/>
    </filter>
  </defs>

  <rect width="1440" height="2200" fill="url(#bg)"/>
  <circle cx="180" cy="760" r="360" fill="#FFD84D" opacity="0.08"/>
  <circle cx="1210" cy="1280" r="420" fill="#50E47C" opacity="0.06"/>

  <!-- Navigation -->
  <g id="Navigation">
    <rect width="1440" height="86" fill="#050706" opacity="0.96"/>
    <rect x="86" y="18" width="50" height="50" rx="10" fill="url(#gold)" filter="url(#softGlow)"/>
    <path d="M101 55V36M112 55V29M123 55V43" stroke="#080806" stroke-width="3" stroke-linecap="round"/>
    <text x="150" y="52" fill="#FFFFFF" font-family="Inter, Arial, sans-serif" font-size="24" font-weight="800">ChartKingz</text>
    <text x="565" y="52" fill="#D8DAD4" font-family="Inter, Arial, sans-serif" font-size="15" font-weight="700">Features</text>
    <text x="653" y="52" fill="#D8DAD4" font-family="Inter, Arial, sans-serif" font-size="15" font-weight="700">Live</text>
    <text x="712" y="52" fill="#D8DAD4" font-family="Inter, Arial, sans-serif" font-size="15" font-weight="700">Plans</text>
    <text x="780" y="52" fill="#D8DAD4" font-family="Inter, Arial, sans-serif" font-size="15" font-weight="700">Tools</text>
    <text x="842" y="52" fill="#D8DAD4" font-family="Inter, Arial, sans-serif" font-size="15" font-weight="700">FAQ</text>
    <text x="1203" y="52" fill="#FFFFFF" font-family="Inter, Arial, sans-serif" font-size="15" font-weight="800">Login</text>
    <rect x="1258" y="18" width="96" height="50" rx="10" fill="url(#gold)"/>
    <text x="1281" y="49" fill="#080806" font-family="Inter, Arial, sans-serif" font-size="15" font-weight="900">Join Now</text>
  </g>

  <!-- Live strip -->
  <g id="Live Stream Strip">
    <rect y="86" width="1440" height="46" fill="url(#gold)"/>
    <circle cx="505" cy="109" r="5" fill="#E94D4D"/>
    <text x="526" y="114" fill="#080806" font-family="Inter, Arial, sans-serif" font-size="15" font-weight="900">LIVE STREAM DAILY @ 7PM</text>
    <circle cx="754" cy="109" r="9" stroke="#080806" stroke-width="2"/>
    <path d="M751 104L759 109L751 114V104Z" fill="#080806"/>
    <text x="775" y="114" fill="#080806" font-family="Inter, Arial, sans-serif" font-size="15" font-weight="900" text-decoration="underline">Subscribe on YouTube</text>
  </g>

  <!-- Hero -->
  <g id="Hero Section">
    <text x="86" y="292" fill="#FFD84D" font-family="Inter, Arial, sans-serif" font-size="14" font-weight="900">TRADING EDUCATION AND MARKET COMMUNITY</text>
    <text x="86" y="390" fill="#FFFFFF" font-family="Inter, Arial, sans-serif" font-size="92" font-weight="900">Read the</text>
    <text x="86" y="488" fill="#FFFFFF" font-family="Inter, Arial, sans-serif" font-size="92" font-weight="900">charts with</text>
    <text x="86" y="586" fill="#FFFFFF" font-family="Inter, Arial, sans-serif" font-size="92" font-weight="900">sharper</text>
    <text x="86" y="684" fill="#FFFFFF" font-family="Inter, Arial, sans-serif" font-size="92" font-weight="900">confidence.</text>
    <text x="90" y="742" fill="#D7D9D2" font-family="Inter, Arial, sans-serif" font-size="19">A premium trading academy homepage with live chart sessions,</text>
    <text x="90" y="774" fill="#D7D9D2" font-family="Inter, Arial, sans-serif" font-size="19">market tools, watchlists, and a risk-first learning system.</text>
    <rect x="86" y="820" width="182" height="54" rx="9" fill="url(#gold)"/>
    <text x="112" y="854" fill="#080806" font-family="Inter, Arial, sans-serif" font-size="16" font-weight="900">Start learning</text>
    <path d="M231 844H246M240 838L246 844L240 850" stroke="#080806" stroke-width="2.5" stroke-linecap="round" stroke-linejoin="round"/>
    <rect x="284" y="820" width="144" height="54" rx="9" fill="#171914" stroke="#4B4F45"/>
    <text x="315" y="854" fill="#FFFFFF" font-family="Inter, Arial, sans-serif" font-size="16" font-weight="800">See tools</text>
    <circle cx="96" cy="918" r="8" stroke="#D7D9D2" stroke-width="2"/>
    <path d="M92 918L95 921L101 914" stroke="#D7D9D2" stroke-width="2" stroke-linecap="round"/>
    <text x="114" y="924" fill="#D7D9D2" font-family="Inter, Arial, sans-serif" font-size="15" font-weight="800">Risk-first framework</text>
    <rect x="292" y="910" width="16" height="16" rx="3" stroke="#D7D9D2" stroke-width="2"/>
    <path d="M296 922V916M300 922V913M304 922V918" stroke="#D7D9D2" stroke-width="2" stroke-linecap="round"/>
    <text x="318" y="924" fill="#D7D9D2" font-family="Inter, Arial, sans-serif" font-size="15" font-weight="800">Live chart breakdowns</text>

    <g id="Hero Dashboard" filter="url(#shadow)">
      <rect x="825" y="286" width="530" height="540" rx="12" fill="#121511" stroke="#343A30"/>
      <circle cx="851" cy="314" r="6" fill="#FFD84D"/>
      <circle cx="872" cy="314" r="6" fill="#50E47C"/>
      <circle cx="893" cy="314" r="6" fill="#E95C5C"/>
      <rect x="850" y="344" width="480" height="432" rx="9" fill="#1B1F1A" stroke="#3D4439"/>
      <text x="875" y="390" fill="#BCC0B7" font-family="Inter, Arial, sans-serif" font-size="16" font-weight="900">BTC / USD</text>
      <text x="875" y="436" fill="#FFFFFF" font-family="Inter, Arial, sans-serif" font-size="31" font-weight="900">$68,420.75</text>
      <rect x="1226" y="384" width="82" height="36" rx="18" fill="#50E47C"/>
      <text x="1245" y="407" fill="#080806" font-family="Inter, Arial, sans-serif" font-size="14" font-weight="900">+4.82%</text>
      <rect x="875" y="476" width="430" height="242" rx="8" fill="#171B16"/>
      <g opacity="0.14" stroke="#FFFFFF">
        <path d="M875 536H1305"/>
        <path d="M875 596H1305"/>
        <path d="M875 656H1305"/>
        <path d="M930 476V718"/>
        <path d="M990 476V718"/>
        <path d="M1050 476V718"/>
        <path d="M1110 476V718"/>
        <path d="M1170 476V718"/>
        <path d="M1230 476V718"/>
      </g>
      <g id="Hero Chart Bars">
        <rect x="900" y="655" width="15" height="63" rx="8" fill="url(#greenGold)"/>
        <rect x="925" y="620" width="15" height="98" rx="8" fill="url(#greenGold)"/>
        <rect x="950" y="575" width="15" height="143" rx="8" fill="url(#greenGold)"/>
        <rect x="975" y="540" width="15" height="178" rx="8" fill="url(#greenGold)"/>
        <rect x="1000" y="505" width="15" height="213" rx="8" fill="url(#greenGold)"/>
        <rect x="1025" y="640" width="15" height="78" rx="8" fill="url(#greenGold)"/>
        <rect x="1050" y="585" width="15" height="133" rx="8" fill="url(#greenGold)"/>
        <rect x="1075" y="548" width="15" height="170" rx="8" fill="url(#greenGold)"/>
        <rect x="1100" y="515" width="15" height="203" rx="8" fill="url(#greenGold)"/>
        <rect x="1125" y="650" width="15" height="68" rx="8" fill="url(#greenGold)"/>
        <rect x="1150" y="600" width="15" height="118" rx="8" fill="url(#greenGold)"/>
        <rect x="1175" y="555" width="15" height="163" rx="8" fill="url(#greenGold)"/>
        <rect x="1200" y="525" width="15" height="193" rx="8" fill="url(#greenGold)"/>
        <rect x="1225" y="660" width="15" height="58" rx="8" fill="url(#greenGold)"/>
        <rect x="1250" y="610" width="15" height="108" rx="8" fill="url(#greenGold)"/>
        <rect x="1275" y="565" width="15" height="153" rx="8" fill="url(#greenGold)"/>
      </g>
      <path d="M875 742H1305" stroke="#3D4439"/>
      <text x="875" y="768" fill="#FFFFFF" font-family="Inter, Arial, sans-serif" font-size="15">Entry zone</text>
      <text x="1234" y="768" fill="#50E47C" font-family="Inter, Arial, sans-serif" font-size="15" font-weight="900">Confirmed</text>
    </g>
  </g>

  <!-- Market cards -->
  <g id="Market Watchlist">
    <rect x="86" y="1036" width="240" height="116" rx="10" fill="#171B16" stroke="#343A30"/>
    <text x="110" y="1074" fill="#AEB3A8" font-family="Inter, Arial, sans-serif" font-size="13" font-weight="900">BTC</text>
    <text x="110" y="1110" fill="#FFFFFF" font-family="Inter, Arial, sans-serif" font-size="26" font-weight="900">$68,420</text>
    <text x="110" y="1138" fill="#50E47C" font-family="Inter, Arial, sans-serif" font-size="15" font-weight="900">+4.8%</text>
    <rect x="346" y="1036" width="240" height="116" rx="10" fill="#171B16" stroke="#343A30"/>
    <text x="370" y="1074" fill="#AEB3A8" font-family="Inter, Arial, sans-serif" font-size="13" font-weight="900">ETH</text>
    <text x="370" y="1110" fill="#FFFFFF" font-family="Inter, Arial, sans-serif" font-size="26" font-weight="900">$3,720</text>
    <text x="370" y="1138" fill="#50E47C" font-family="Inter, Arial, sans-serif" font-size="15" font-weight="900">+2.1%</text>
    <rect x="606" y="1036" width="240" height="116" rx="10" fill="#171B16" stroke="#343A30"/>
    <text x="630" y="1074" fill="#AEB3A8" font-family="Inter, Arial, sans-serif" font-size="13" font-weight="900">NIFTY</text>
    <text x="630" y="1110" fill="#FFFFFF" font-family="Inter, Arial, sans-serif" font-size="26" font-weight="900">22,840</text>
    <text x="630" y="1138" fill="#E95C5C" font-family="Inter, Arial, sans-serif" font-size="15" font-weight="900">-0.6%</text>
    <rect x="866" y="1036" width="240" height="116" rx="10" fill="#171B16" stroke="#343A30"/>
    <text x="890" y="1074" fill="#AEB3A8" font-family="Inter, Arial, sans-serif" font-size="13" font-weight="900">GOLD</text>
    <text x="890" y="1110" fill="#FFFFFF" font-family="Inter, Arial, sans-serif" font-size="26" font-weight="900">$2,345</text>
    <text x="890" y="1138" fill="#50E47C" font-family="Inter, Arial, sans-serif" font-size="15" font-weight="900">+1.3%</text>
    <rect x="1126" y="1036" width="228" height="116" rx="10" fill="#171B16" stroke="#343A30"/>
    <text x="1150" y="1074" fill="#AEB3A8" font-family="Inter, Arial, sans-serif" font-size="13" font-weight="900">NASDAQ</text>
    <text x="1150" y="1110" fill="#FFFFFF" font-family="Inter, Arial, sans-serif" font-size="26" font-weight="900">18,920</text>
    <text x="1150" y="1138" fill="#50E47C" font-family="Inter, Arial, sans-serif" font-size="15" font-weight="900">+0.9%</text>
  </g>

  <!-- Tools preview -->
  <g id="Trader Tools Preview">
    <text x="86" y="1284" fill="#FFD84D" font-family="Inter, Arial, sans-serif" font-size="14" font-weight="900">INTERACTIVE TRADER TOOLS</text>
    <text x="86" y="1358" fill="#FFFFFF" font-family="Inter, Arial, sans-serif" font-size="58" font-weight="900">Make the page useful,</text>
    <text x="86" y="1424" fill="#FFFFFF" font-family="Inter, Arial, sans-serif" font-size="58" font-weight="900">not just beautiful.</text>

    <rect x="86" y="1490" width="610" height="330" rx="12" fill="#1A1E18" stroke="#3A4037"/>
    <circle cx="126" cy="1532" r="14" stroke="#FFD84D" stroke-width="3"/>
    <path d="M119 1532L124 1537L134 1526" stroke="#FFD84D" stroke-width="3" stroke-linecap="round"/>
    <text x="116" y="1588" fill="#FFFFFF" font-family="Inter, Arial, sans-serif" font-size="26" font-weight="900">Risk Calculator</text>
    <rect x="116" y="1636" width="520" height="42" rx="8" fill="#30342D" stroke="#555B51"/>
    <text x="136" y="1663" fill="#FFFFFF" font-family="Inter, Arial, sans-serif" font-size="15" font-weight="800">Account size: 1000</text>
    <rect x="116" y="1696" width="250" height="42" rx="8" fill="#30342D" stroke="#555B51"/>
    <text x="136" y="1723" fill="#FFFFFF" font-family="Inter, Arial, sans-serif" font-size="15" font-weight="800">Risk: 2%</text>
    <rect x="386" y="1696" width="250" height="42" rx="8" fill="#30342D" stroke="#555B51"/>
    <text x="406" y="1723" fill="#FFFFFF" font-family="Inter, Arial, sans-serif" font-size="15" font-weight="800">Reward: 3x</text>
    <text x="116" y="1786" fill="#AEB3A8" font-family="Inter, Arial, sans-serif" font-size="15" font-weight="800">Risk amount</text>
    <text x="582" y="1786" text-anchor="end" fill="#FFD84D" font-family="Inter, Arial, sans-serif" font-size="18" font-weight="900">$20.00</text>

    <rect x="726" y="1490" width="300" height="330" rx="12" fill="#1A1E18" stroke="#3A4037"/>
    <path d="M780 1578A72 72 0 0 1 924 1578" stroke="#FFD84D" stroke-width="10" stroke-linecap="round"/>
    <path d="M852 1578L896 1534" stroke="#FFFFFF" stroke-width="4" stroke-linecap="round"/>
    <text x="766" y="1648" fill="#FFFFFF" font-family="Inter, Arial, sans-serif" font-size="24" font-weight="900">Mood Meter</text>
    <rect x="766" y="1700" width="220" height="18" rx="9" fill="url(#greenGold)"/>
    <text x="766" y="1768" fill="#FFD84D" font-family="Inter, Arial, sans-serif" font-size="26" font-weight="900">Bullish</text>

    <rect x="1056" y="1490" width="298" height="330" rx="12" fill="#1A1E18" stroke="#3A4037"/>
    <text x="1096" y="1552" fill="#FFFFFF" font-family="Inter, Arial, sans-serif" font-size="24" font-weight="900">Course Roadmap</text>
    <text x="1096" y="1610" fill="#D8DAD4" font-family="Inter, Arial, sans-serif" font-size="15" font-weight="800">Market Structure</text>
    <rect x="1096" y="1628" width="210" height="10" rx="5" fill="#30342D"/>
    <rect x="1096" y="1628" width="190" height="10" rx="5" fill="url(#greenGold)"/>
    <text x="1096" y="1686" fill="#D8DAD4" font-family="Inter, Arial, sans-serif" font-size="15" font-weight="800">Fibonacci Planning</text>
    <rect x="1096" y="1704" width="210" height="10" rx="5" fill="#30342D"/>
    <rect x="1096" y="1704" width="160" height="10" rx="5" fill="url(#greenGold)"/>
    <text x="1096" y="1762" fill="#D8DAD4" font-family="Inter, Arial, sans-serif" font-size="15" font-weight="800">Risk Management</text>
    <rect x="1096" y="1780" width="210" height="10" rx="5" fill="#30342D"/>
    <rect x="1096" y="1780" width="184" height="10" rx="5" fill="url(#greenGold)"/>
  </g>

  <!-- Pricing preview -->
  <g id="Pricing Preview">
    <text x="86" y="1950" fill="#FFD84D" font-family="Inter, Arial, sans-serif" font-size="14" font-weight="900">MEMBERSHIP</text>
    <text x="86" y="2025" fill="#FFFFFF" font-family="Inter, Arial, sans-serif" font-size="58" font-weight="900">Pricing with currency controls.</text>
    <rect x="86" y="2078" width="392" height="86" rx="12" fill="#1A1E18" stroke="#3A4037"/>
    <text x="116" y="2130" fill="#FFFFFF" font-family="Inter, Arial, sans-serif" font-size="26" font-weight="900">$49</text>
    <text x="192" y="2130" fill="#AEB3A8" font-family="Inter, Arial, sans-serif" font-size="16" font-weight="800">Monthly</text>
    <rect x="366" y="2100" width="82" height="42" rx="8" fill="#30342D" stroke="#555B51"/>
    <text x="391" y="2127" fill="#FFFFFF" font-family="Inter, Arial, sans-serif" font-size="15" font-weight="900">USD</text>
    <rect x="522" y="2078" width="392" height="86" rx="12" fill="#1A1E18" stroke="#FFD84D"/>
    <text x="552" y="2130" fill="#FFFFFF" font-family="Inter, Arial, sans-serif" font-size="26" font-weight="900">$149</text>
    <text x="642" y="2130" fill="#AEB3A8" font-family="Inter, Arial, sans-serif" font-size="16" font-weight="800">Pro</text>
    <rect x="802" y="2100" width="82" height="42" rx="8" fill="#30342D" stroke="#555B51"/>
    <text x="827" y="2127" fill="#FFFFFF" font-family="Inter, Arial, sans-serif" font-size="15" font-weight="900">INR</text>
    <rect x="958" y="2078" width="396" height="86" rx="12" fill="#1A1E18" stroke="#3A4037"/>
    <text x="988" y="2130" fill="#FFFFFF" font-family="Inter, Arial, sans-serif" font-size="26" font-weight="900">$499</text>
    <text x="1080" y="2130" fill="#AEB3A8" font-family="Inter, Arial, sans-serif" font-size="16" font-weight="800">Lifetime</text>
    <rect x="1242" y="2100" width="82" height="42" rx="8" fill="#30342D" stroke="#555B51"/>
    <text x="1268" y="2127" fill="#FFFFFF" font-family="Inter, Arial, sans-serif" font-size="15" font-weight="900">EUR</text>
  </g>
</svg>
