<svg width="1536" height="960" viewBox="0 0 1536 960" fill="none" xmlns="http://www.w3.org/2000/svg">
  <title>Singularity Architects Homepage Editable Figma Mockup</title>
  <defs>
    <pattern id="grid" width="77" height="77" patternUnits="userSpaceOnUse">
      <path d="M77 0H0V77" stroke="#DDE5DE" stroke-width="1" opacity="0.55"/>
    </pattern>
    <style>
      .serif{font-family:Georgia,'Times New Roman',serif}
      .sans{font-family:Inter,Arial,sans-serif}
      .caps{letter-spacing:5px;text-transform:uppercase}
      .smallcaps{letter-spacing:3px;text-transform:uppercase}
    </style>
  </defs>

  <rect width="1536" height="960" fill="#FBFBF7"/>
  <rect width="1536" height="960" fill="url(#grid)"/>

  <g id="Header">
    <rect width="1536" height="66" fill="#FBFBF7" opacity="0.92"/>
    <path d="M0 66H1536" stroke="#E3E6E0"/>
    <text x="40" y="34" class="serif" fill="#141211" font-size="22" font-weight="700">Singularity</text>
    <text x="40" y="50" class="sans caps" fill="#2F332F" font-size="8" font-weight="700">Architects / Est. 2012</text>

    <g id="Category Nav" class="sans smallcaps" font-size="11" font-weight="700">
      <rect x="419" y="19" width="54" height="30" fill="#F7FAF6" stroke="#B8C7BE"/>
      <text x="435" y="38" fill="#0A715C">All</text>
      <rect x="480" y="20" width="130" height="28" fill="#F4F4F1"/>
      <text x="494" y="38" fill="#777B75">Architecture</text>
      <rect x="618" y="20" width="96" height="28" fill="#F4F4F1"/>
      <text x="631" y="38" fill="#777B75">Interiors</text>
      <rect x="722" y="20" width="108" height="28" fill="#F4F4F1"/>
      <text x="737" y="38" fill="#777B75">Landscape</text>
      <rect x="838" y="20" width="96" height="28" fill="#F4F4F1"/>
      <text x="852" y="38" fill="#777B75">Planning</text>
    </g>

    <g id="Meta Nav" class="sans smallcaps" font-size="11" font-weight="700" fill="#4D514B">
      <text x="1204" y="38">About</text>
      <text x="1267" y="38">Awards</text>
      <text x="1346" y="38">Contact</text>
      <rect x="1419" y="19" width="94" height="30" fill="#00704F"/>
      <text x="1437" y="38" fill="#FFFFFF">Admin /</text>
    </g>
  </g>

  <g id="Hero Text">
    <path d="M40 313H66" stroke="#0A715C"/>
    <text x="76" y="317" class="sans caps" fill="#0A715C" font-size="10" font-weight="800">Singularity Architects / Since 2012</text>
    <text x="38" y="415" class="serif" fill="#141211" font-size="62" font-weight="700">Architecture</text>
    <text x="38" y="488" class="serif" fill="#00704F" font-size="62" font-style="italic">Redefined</text>
    <text x="38" y="560" class="serif" fill="#141211" font-size="62" font-weight="700">by Vision</text>

    <g id="Stats" class="sans" fill="#141211">
      <text x="40" y="628" class="serif" font-size="28" font-weight="700">6</text>
      <text x="40" y="644" class="caps" fill="#777B75" font-size="7" font-weight="700">Projects</text>
      <text x="178" y="628" class="serif" font-size="28" font-weight="700">38</text>
      <text x="178" y="644" class="caps" fill="#777B75" font-size="7" font-weight="700">Awards</text>
      <text x="310" y="628" class="serif" font-size="28" font-weight="700">18</text>
      <text x="310" y="644" class="caps" fill="#777B75" font-size="7" font-weight="700">Countries</text>
    </g>

    <rect x="40" y="694" width="160" height="40" fill="#FBFBF7" stroke="#D7DAD4"/>
    <text x="64" y="718" class="sans smallcaps" fill="#171514" font-size="10" font-weight="800">Explore Work</text>
    <path d="M163 714H177M172 709L177 714L172 719" stroke="#171514" stroke-width="1.5"/>
  </g>

  <g id="Sectors" class="sans" text-anchor="middle">
    <g id="Residential" fill="#486A3B">
      <circle cx="502" cy="160" r="29" fill="#FBFBF7" stroke="#486A3B"/>
      <path d="M489 165L502 154L515 165V176H489V165Z" stroke="#486A3B" stroke-width="2"/>
      <text x="502" y="211" font-size="13" font-weight="800">RESIDENTIAL</text>
      <text x="502" y="230" fill="#555B54" font-size="10">Human Living</text>
      <text x="502" y="263" fill="#343934" font-size="9">Forest Edge Retreat</text>
      <text x="502" y="284" fill="#343934" font-size="9">The Courtyard House</text>
      <text x="502" y="305" fill="#343934" font-size="9">Aranya Villas</text>
      <text x="502" y="326" fill="#343934" font-size="9">Riverline Residence</text>
      <text x="502" y="347" fill="#343934" font-size="9">Hillside Habitat</text>
      <text x="502" y="368" fill="#343934" font-size="9">+ More</text>
    </g>
    <g id="Institutional" fill="#327271">
      <circle cx="674" cy="160" r="29" fill="#FBFBF7" stroke="#327271"/>
      <path d="M660 173H688M663 166H685M674 147L689 156H659L674 147ZM666 160V171M674 160V171M682 160V171" stroke="#327271" stroke-width="2"/>
      <text x="674" y="211" font-size="13" font-weight="800">INSTITUTIONAL</text>
      <text x="674" y="230" fill="#555B54" font-size="10">Learning &amp; Culture</text>
      <text x="674" y="263" fill="#343934" font-size="9">Knowledge Commons</text>
      <text x="674" y="284" fill="#343934" font-size="9">University Campus</text>
      <text x="674" y="305" fill="#343934" font-size="9">Research Pavilion</text>
      <text x="674" y="326" fill="#343934" font-size="9">Cultural Center</text>
      <text x="674" y="347" fill="#343934" font-size="9">Innovation Hub</text>
      <text x="674" y="368" fill="#343934" font-size="9">+ More</text>
    </g>
    <g id="Hospitality" fill="#3F7F45">
      <circle cx="846" cy="160" r="29" fill="#FBFBF7" stroke="#3F7F45"/>
      <path d="M846 177V145M846 159C833 154 835 143 846 147M847 166C861 160 860 149 848 153" stroke="#3F7F45" stroke-width="2"/>
      <text x="846" y="211" font-size="13" font-weight="800">HOSPITALITY</text>
      <text x="846" y="230" fill="#555B54" font-size="10">Experience &amp; Leisure</text>
      <text x="846" y="263" fill="#343934" font-size="9">Eco Resort</text>
      <text x="846" y="284" fill="#343934" font-size="9">Lakeview Hotel</text>
      <text x="846" y="305" fill="#343934" font-size="9">Wilderness Lodge</text>
      <text x="846" y="326" fill="#343934" font-size="9">The Valley Retreat</text>
      <text x="846" y="347" fill="#343934" font-size="9">Coastal Escape</text>
      <text x="846" y="368" fill="#343934" font-size="9">+ More</text>
    </g>
    <g id="Healthcare" fill="#9A7A30">
      <circle cx="1018" cy="160" r="29" fill="#FBFBF7" stroke="#9A7A30"/>
      <path d="M1012 144H1024V156H1036V168H1024V180H1012V168H1000V156H1012V144Z" fill="#9A7A30"/>
      <text x="1018" y="211" font-size="13" font-weight="800">HEALTHCARE</text>
      <text x="1018" y="230" fill="#555B54" font-size="10">Healing Spaces</text>
      <text x="1018" y="263" fill="#343934" font-size="9">Wellness Center</text>
      <text x="1018" y="284" fill="#343934" font-size="9">Diagnostic Hub</text>
      <text x="1018" y="305" fill="#343934" font-size="9">Healing Gardens</text>
      <text x="1018" y="326" fill="#343934" font-size="9">Rehab Facility</text>
      <text x="1018" y="347" fill="#343934" font-size="9">Care Home</text>
      <text x="1018" y="368" fill="#343934" font-size="9">+ More</text>
    </g>
    <g id="Commercial" fill="#51445F">
      <circle cx="1192" cy="160" r="29" fill="#FBFBF7" stroke="#51445F"/>
      <path d="M1178 176H1206M1182 176V158H1190V176M1194 176V145H1202V176" stroke="#51445F" stroke-width="2"/>
      <text x="1192" y="211" font-size="13" font-weight="800">COMMERCIAL</text>
      <text x="1192" y="230" fill="#555B54" font-size="10">Business &amp; Innovation</text>
      <text x="1192" y="263" fill="#343934" font-size="9">Green Office Park</text>
      <text x="1192" y="284" fill="#343934" font-size="9">Workplace Towers</text>
      <text x="1192" y="305" fill="#343934" font-size="9">Design Studio</text>
      <text x="1192" y="326" fill="#343934" font-size="9">Retail Complex</text>
      <text x="1192" y="347" fill="#343934" font-size="9">Tech Park</text>
      <text x="1192" y="368" fill="#343934" font-size="9">+ More</text>
    </g>
  </g>

  <g id="Nature Technology Branches" stroke-linecap="round" opacity="0.76">
    <g id="Residential Branches" stroke="#486A3B">
      <path d="M816 731C760 646 685 552 514 380" stroke-width="1.2"/>
      <path d="M806 724C735 640 625 580 452 423"/>
      <path d="M820 712C760 615 650 500 517 290"/>
      <path d="M790 698C705 655 600 631 476 612"/>
      <path d="M814 720C702 664 573 679 393 780"/>
    </g>
    <g id="Institutional Branches" stroke="#327271">
      <path d="M816 731C798 640 745 523 677 382" stroke-width="1.4"/>
      <path d="M817 725C767 615 702 547 623 430"/>
      <path d="M816 722C832 600 785 505 744 388"/>
      <path d="M808 718C725 644 649 621 557 574"/>
    </g>
    <g id="Hospitality Branches" stroke="#3F7F45">
      <path d="M816 731C829 610 846 495 846 382" stroke-width="1.3"/>
      <path d="M819 725C874 621 912 510 938 386"/>
      <path d="M814 724C790 617 791 523 777 402"/>
      <path d="M818 720C855 646 912 611 980 563"/>
    </g>
    <g id="Healthcare Branches" stroke="#9A7A30">
      <path d="M816 731C886 632 949 505 1016 382" stroke-width="1.2"/>
      <path d="M818 724C909 642 1013 584 1122 479"/>
      <path d="M812 728C912 669 1040 664 1187 636"/>
    </g>
    <g id="Commercial Branches" stroke="#51445F">
      <path d="M816 731C965 621 1078 498 1192 382" stroke-width="1.3"/>
      <path d="M812 727C962 667 1131 604 1267 438"/>
      <path d="M820 720C1022 671 1168 677 1324 713"/>
      <path d="M812 735C988 739 1133 765 1297 846"/>
    </g>

    <g id="Roots" stroke-width="1">
      <path d="M816 731C703 743 585 759 448 820" stroke="#7D7F53"/>
      <path d="M816 731C680 726 547 710 392 726" stroke="#6D744F"/>
      <path d="M816 731C696 775 575 826 434 899" stroke="#7D7F53"/>
      <path d="M816 731C908 752 1048 786 1286 836" stroke="#188273"/>
      <path d="M816 731C951 735 1120 723 1373 733" stroke="#188273"/>
      <path d="M816 731C965 773 1098 851 1266 923" stroke="#188273"/>
      <path d="M816 731C817 793 817 850 817 904" stroke="#0A715C"/>
    </g>
  </g>

  <g id="Node Marks" fill="#FBFBF7" stroke-width="1">
    <circle cx="816" cy="731" r="10" fill="#0A715C" stroke="#FBFBF7" stroke-width="5"/>
    <circle cx="514" cy="380" r="4" stroke="#486A3B"/>
    <circle cx="677" cy="382" r="4" stroke="#327271"/>
    <circle cx="846" cy="382" r="4" stroke="#3F7F45"/>
    <circle cx="1016" cy="382" r="4" stroke="#9A7A30"/>
    <circle cx="1192" cy="382" r="4" stroke="#51445F"/>
    <circle cx="448" cy="820" r="4" stroke="#7D7F53"/>
    <circle cx="1286" cy="836" r="4" stroke="#188273"/>
  </g>

  <g id="Annotations" class="sans" text-anchor="middle" fill="#34403A">
    <text x="620" y="662" font-size="10" font-weight="800" class="smallcaps">Nature</text>
    <text x="620" y="678" font-size="9" fill="#58605B">Organic Origins</text>
    <text x="978" y="662" font-size="10" font-weight="800" class="smallcaps">Technology</text>
    <text x="978" y="678" font-size="9" fill="#58605B">Digital Intelligence</text>
    <path d="M817 742V880" stroke="#0A715C" opacity="0.35"/>
    <text x="817" y="896" font-size="11" font-weight="800" class="smallcaps">Singularity</text>
    <text x="817" y="914" font-size="10" fill="#58605B">Unity of Nature &amp; Technology</text>
    <text x="817" y="931" font-size="10" fill="#58605B">Point of Divergence</text>
  </g>
</svg>
